<svg xmlns="http://www.w3.org/2000/svg" width="18" height="17" viewBox="0 0 18 17"><g><g><path fill="#243f4d" d="M8.912 16.244a.706.706 0 0 1-.28-.056c-.353-.15-8.65-3.75-8.65-10.76C.075 2.779 2.19.722 4.8.722c1.743 0 3.266.918 4.112 2.31a4.798 4.798 0 0 1 4.113-2.31c2.61 0 4.725 2.058 4.816 4.684 0 7.034-8.296 10.634-8.649 10.783a.712.712 0 0 1-.28.056zM4.8 2.106c-1.846 0-3.343 1.47-3.408 3.346.001 5.408 6.125 8.663 7.52 9.335 1.396-.672 7.52-3.93 7.52-9.358-.065-1.853-1.562-3.323-3.407-3.323s-3.343 1.47-3.409 3.346a.7.7 0 0 1-.704.67.7.7 0 0 1-.704-.67C8.143 3.576 6.646 2.106 4.8 2.106z"/></g></g></svg>